<?xml version="1.0" standalone="no"?>
<!DOCTYPE svg PUBLIC "-//W3C//DTD SVG 20010904//EN"
 "http://www.w3.org/TR/2001/REC-SVG-20010904/DTD/svg10.dtd">
<svg version="1.0" xmlns="http://www.w3.org/2000/svg"
 width="800.000000pt" height="796.000000pt" viewBox="0 0 800.000000 796.000000"
 preserveAspectRatio="xMidYMid meet">
<metadata>
Created by potrace 1.14, written by Peter Selinger 2001-2017
</metadata>
<g transform="translate(0.000000,796.000000) scale(0.100000,-0.100000)"
fill="#000000" stroke="none">
<path d="M2011 7426 c-26 -28 -61 -115 -61 -154 0 -46 -13 -46 -25 -1 -12 52
-37 71 -61 47 -36 -36 -57 -145 -63 -338 -6 -174 -7 -183 -21 -155 -12 23 -23
31 -48 33 -27 3 -32 7 -26 20 17 40 34 118 28 134 -5 18 -16 22 -76 33 -21 3
-38 8 -38 10 0 3 15 26 34 52 71 101 83 148 41 159 -30 7 -59 -2 -50 -16 3 -5
15 -10 26 -10 10 0 19 -5 19 -10 0 -17 -35 -80 -74 -134 -38 -54 -35 -76 9
-76 12 0 37 -3 55 -6 30 -7 32 -9 27 -41 -6 -34 -54 -141 -79 -175 -24 -34 2
-30 42 6 22 20 45 36 50 36 20 0 49 -40 55 -77 11 -61 16 -74 28 -70 8 2 13
34 15 86 l3 82 32 -48 c47 -71 75 -71 119 1 18 31 36 56 40 56 4 0 8 -12 10
-27 4 -36 32 -41 69 -14 32 24 19 26 199 -28 l55 -16 -1 -41 c-1 -51 -57 -172
-120 -261 -47 -65 -52 -94 -11 -55 58 55 167 274 167 337 0 36 -37 58 -143 84
-54 12 -97 27 -97 33 0 5 8 22 18 36 43 62 71 192 41 192 -18 0 -53 -21 -86
-53 l-33 -31 0 47 c0 91 -42 35 -65 -87 -15 -79 -75 -196 -100 -196 -19 0 -65
69 -65 97 0 14 -6 23 -15 23 -12 0 -15 13 -15 59 0 114 40 331 61 331 10 0 39
-94 39 -127 0 -30 28 -31 34 0 3 12 12 57 20 100 15 81 41 137 65 145 23 8 7
-87 -28 -167 -17 -38 -31 -74 -31 -80 0 -19 26 -12 65 19 45 35 48 36 40 10
-10 -30 3 -24 25 13 21 34 26 57 11 57 -4 0 -29 -16 -54 -35 -25 -19 -48 -35
-51 -35 -3 0 8 28 24 62 62 132 43 241 -29 164z"/>
<path d="M5486 7391 c-4 -6 -24 -11 -44 -11 -81 -1 -142 -14 -142 -31 0 -5 -7
-9 -15 -9 -8 0 -15 4 -15 9 0 22 -40 21 -77 -2 -29 -18 -50 -23 -90 -22 -43 2
-54 -1 -58 -15 -3 -10 -13 -24 -22 -32 -15 -11 -16 -11 -9 6 7 19 6 19 -14 1
-11 -10 -20 -13 -20 -7 0 12 -20 10 -62 -7 -16 -6 -28 -15 -28 -21 0 -5 -3 -9
-7 -9 -25 4 -43 -3 -43 -17 0 -8 -5 -12 -11 -9 -6 4 -8 14 -4 22 4 13 3 14
-10 3 -17 -14 -17 -15 -32 20 l-12 25 -1 -30 c-1 -29 -1 -29 -16 -10 -12 16
-18 17 -32 8 -18 -11 -19 -25 -6 -57 5 -14 4 -17 -5 -11 -10 5 -11 2 -6 -14 5
-17 2 -24 -13 -28 -22 -5 -46 -57 -36 -77 3 -6 -2 -1 -11 11 l-17 22 -21 -25
c-17 -19 -33 -25 -70 -26 -36 -2 -45 -5 -34 -13 7 -5 12 -16 10 -22 -3 -7 2
-13 11 -13 9 0 16 -4 16 -10 0 -5 -19 -10 -42 -10 -42 -1 -43 -1 -18 -15 l25
-14 -28 -1 c-18 0 -26 -4 -21 -11 3 -6 0 -15 -7 -20 -10 -6 -7 -9 11 -9 33 0
15 -14 -37 -29 -24 -6 -43 -16 -43 -21 0 -5 8 -7 18 -4 9 2 2 -3 -16 -13 -19
-9 -31 -22 -28 -30 3 -7 -13 -27 -35 -45 -36 -29 -39 -34 -23 -45 16 -12 16
-13 -3 -20 -33 -13 -85 -62 -78 -73 5 -8 11 -7 21 1 10 8 14 8 14 0 0 -6 -5
-11 -11 -11 -6 0 -9 -6 -6 -14 3 -8 -1 -20 -8 -26 -8 -7 -13 -16 -10 -20 3 -5
1 -12 -5 -15 -8 -5 -7 -11 1 -21 9 -11 8 -18 -5 -33 -13 -15 -14 -20 -4 -24 9
-3 5 -11 -12 -26 l-25 -22 24 7 c25 7 24 -2 -8 -40 -9 -11 -10 -16 -4 -12 18
10 47 -29 49 -66 6 -101 24 -257 31 -278 3 -8 7 -34 9 -58 2 -23 8 -51 14 -62
6 -11 12 -46 15 -78 2 -31 4 -57 5 -57 2 0 3 -22 5 -50 1 -27 6 -66 10 -85 5
-19 9 -42 10 -50 2 -15 14 -61 42 -159 16 -54 27 -135 39 -274 4 -48 10 -73
15 -65 7 10 9 9 9 -4 0 -9 7 -23 15 -32 8 -8 16 -25 17 -37 2 -13 10 -31 18
-40 56 -63 60 -71 49 -85 -7 -8 -7 -14 -2 -14 6 0 9 -12 7 -27 -1 -15 3 -31 9
-35 7 -4 2 -6 -11 -5 -12 0 -22 7 -22 15 0 7 -4 10 -10 7 -5 -3 -10 -15 -10
-25 0 -13 -5 -17 -14 -14 -11 4 -13 -1 -6 -30 7 -33 6 -35 -23 -46 -25 -8 -29
-8 -19 2 6 6 12 16 12 21 0 5 -7 1 -16 -8 -9 -8 -13 -22 -10 -30 3 -8 3 -15 0
-15 -2 0 -9 12 -15 26 -5 15 -12 24 -16 20 -3 -3 -13 0 -21 7 -13 10 -14 9 -7
-2 6 -11 2 -13 -21 -7 -21 5 -25 4 -14 -4 13 -8 13 -10 -1 -10 -9 0 -20 8 -23
17 -10 25 -30 0 -21 -27 6 -18 9 -19 22 -8 15 12 15 11 2 -9 -8 -13 -18 -24
-24 -25 -30 -4 100 -13 158 -10 47 3 67 7 64 15 -2 7 -1 21 4 32 6 17 8 15 9
-10 2 -44 7 -66 18 -77 5 -5 7 -18 5 -29 -5 -18 -25 -19 -757 -20 -870 0 -902
-1 -915 -14 -6 -6 -7 -60 -2 -145 4 -74 9 -123 9 -108 2 26 4 27 82 34 58 5
80 10 80 20 0 8 5 14 10 14 6 0 10 -7 10 -16 0 -14 64 -15 698 -10 383 4 747
9 809 12 l112 5 48 -73 c62 -93 70 -114 78 -218 4 -47 9 -88 11 -92 3 -4 6
-40 8 -80 2 -40 6 -86 10 -103 6 -29 6 -29 -4 -5 -6 14 -18 87 -26 162 -12
116 -31 213 -33 171 -1 -14 -91 -63 -115 -63 -7 0 -65 -23 -127 -51 -63 -28
-170 -71 -239 -96 -69 -24 -163 -58 -210 -74 -47 -17 -109 -35 -139 -40 -29
-5 -62 -14 -72 -19 -18 -10 -222 -55 -314 -70 -27 -4 -62 -13 -77 -18 -35 -14
-247 -233 -398 -412 -161 -190 -189 -218 -225 -222 -34 -4 -42 15 -44 102 -1
31 -7 107 -15 170 -22 172 -25 209 -32 400 -3 96 -10 191 -15 210 -9 35 -87
110 -115 110 -7 0 -17 7 -22 16 -11 19 -52 10 -52 -11 0 -8 -10 -21 -22 -31
-15 -11 -17 -14 -6 -11 10 4 20 2 23 -3 4 -6 2 -10 -3 -10 -6 0 -19 -16 -31
-35 -13 -22 -28 -35 -41 -35 -12 0 -19 -3 -17 -7 10 -16 -12 -53 -28 -47 -9 4
-15 1 -15 -8 0 -23 -57 -85 -92 -98 -18 -8 -34 -14 -36 -16 -2 -1 4 -30 13
-65 9 -35 15 -77 13 -94 -4 -31 -3 -32 43 -34 26 -1 50 3 54 9 18 29 77 0 88
-45 4 -19 5 -18 6 2 0 12 -4 34 -9 48 -8 20 -7 30 6 42 8 9 14 27 12 42 -3 23
-8 27 -48 31 l-45 5 2 60 c4 81 10 105 29 105 14 0 14 -3 4 -15 -9 -11 -10
-15 -1 -15 16 0 42 -26 34 -34 -3 -3 2 -8 11 -12 19 -7 21 -31 4 -37 -7 -2 10
-9 38 -16 48 -11 51 -14 51 -44 0 -18 -5 -35 -11 -39 -7 -5 -4 -8 7 -8 10 0
22 -11 27 -25 6 -15 24 -32 44 -40 34 -15 54 -51 36 -69 -16 -16 -12 -26 10
-26 17 0 19 -6 16 -50 -2 -28 -9 -57 -16 -65 -9 -11 -9 -23 -2 -45 7 -18 7
-32 1 -35 -5 -4 -6 -18 -3 -32 5 -19 3 -24 -7 -21 -8 3 -13 14 -11 25 1 11 -4
26 -13 33 -8 7 -12 17 -9 22 10 16 -17 28 -67 28 -25 0 -51 6 -58 12 -11 10
-13 10 -7 1 4 -7 4 -18 1 -23 -9 -15 -37 9 -31 27 3 7 -1 13 -9 13 -8 0 -15 3
-15 8 0 14 -65 7 -77 -8 -11 -13 -12 -13 -13 3 0 9 -4 17 -9 17 -14 0 -21 -28
-8 -34 8 -3 5 -10 -9 -21 -23 -17 -22 -70 1 -79 10 -3 11 2 5 24 -9 32 3 50
35 50 34 0 37 -11 9 -47 -22 -30 -23 -34 -8 -40 9 -3 29 -2 44 4 25 9 26 8 22
-19 -2 -15 1 -34 7 -42 15 -18 4 -46 -18 -46 -19 0 -61 43 -61 61 0 6 -7 9
-15 5 -9 -3 -15 0 -15 8 0 8 -7 16 -15 20 -15 5 -19 -13 -16 -74 l2 -25 -21
24 c-11 13 -20 29 -20 37 0 8 -6 14 -14 14 -9 0 -12 12 -11 40 2 41 -3 48 -22
29 -20 -20 -24 8 -8 67 19 73 19 97 0 64 -8 -14 -14 -32 -15 -41 0 -19 -117
-54 -147 -45 -12 4 -23 -1 -30 -13 -11 -18 -10 -18 40 -6 29 7 59 15 68 19 10
5 19 -1 27 -18 6 -13 24 -32 41 -42 23 -13 29 -24 29 -48 0 -17 0 -53 0 -81 0
-27 -1 -65 -1 -84 l-2 -33 -102 6 c-98 6 -103 5 -128 -18 l-26 -25 17 -63 c9
-35 22 -72 28 -83 5 -11 9 -24 8 -28 -5 -16 20 -92 32 -102 7 -5 20 -24 29
-42 9 -17 22 -37 29 -45 7 -7 21 -26 31 -41 17 -26 17 -31 3 -70 -9 -23 -20
-60 -24 -82 -8 -39 -9 -36 -41 85 -18 69 -89 330 -157 580 -131 481 -134 490
-192 490 -14 0 -113 -11 -221 -25 -242 -31 -1148 -137 -1369 -161 l-162 -17 0
-59 c0 -32 3 -58 8 -58 4 0 270 33 592 74 376 47 587 70 591 64 4 -7 8 -6 10
0 3 10 548 87 555 79 1 -1 41 -148 89 -327 48 -179 96 -356 106 -395 56 -207
79 -309 72 -315 -7 -7 -1157 -268 -1291 -294 -47 -8 -53 -12 -48 -30 3 -12 9
-38 12 -58 4 -21 10 -38 14 -38 7 0 608 139 1126 261 116 27 217 49 223 49 6
0 11 -10 11 -23 0 -22 -18 -27 -452 -131 -1204 -287 -1544 -366 -1558 -364 -9
2 -19 23 -25 52 -6 27 -17 52 -24 54 -10 3 -11 -2 -5 -19 5 -13 8 -38 8 -56 0
-20 4 -30 10 -27 6 3 3 -1 -6 -9 -13 -10 -18 -29 -18 -71 0 -67 -4 -66 126
-31 87 23 97 24 124 10 27 -14 73 -4 961 217 755 187 928 233 908 241 -23 9
-23 10 13 19 44 12 46 20 22 110 -8 33 -14 61 -12 62 8 5 143 34 146 31 2 -2
-13 -22 -33 -44 -36 -40 -37 -42 -27 -88 16 -72 25 -166 15 -160 -4 2 -25 12
-47 22 -41 20 -38 20 -191 -19 -33 -8 -91 -22 -130 -32 -38 -9 -72 -18 -74
-20 -2 -2 2 -11 10 -21 13 -15 12 -15 -12 0 -14 10 -32 15 -40 13 -8 -3 -34
-10 -59 -16 -41 -11 -43 -13 -25 -26 10 -8 14 -14 9 -14 -6 0 -15 5 -21 11 -9
9 -27 9 -72 -1 -59 -12 -74 -23 -48 -33 9 -4 9 -8 -2 -15 -11 -8 -8 -13 13
-27 15 -10 25 -20 22 -22 -2 -3 -18 5 -35 18 -22 16 -28 25 -19 31 17 10 -10
30 -32 23 -8 -2 -34 -9 -58 -15 -34 -9 -41 -14 -33 -24 6 -7 8 -16 4 -20 -4
-4 3 -16 17 -26 14 -10 22 -22 18 -25 -4 -4 -17 2 -29 14 -13 12 -27 21 -32
21 -5 0 -4 6 2 14 20 24 -6 29 -70 16 -56 -12 -70 -22 -49 -35 5 -3 7 -11 4
-18 -2 -7 8 -20 23 -29 16 -10 22 -18 15 -18 -8 0 -27 10 -44 21 -22 16 -26
24 -17 30 26 16 -23 23 -79 11 -62 -13 -72 -19 -53 -31 7 -5 11 -13 7 -19 -3
-5 6 -17 20 -27 14 -9 23 -19 20 -22 -7 -8 -67 37 -61 47 3 4 -2 13 -9 19 -11
9 -28 9 -71 -3 -60 -15 -78 -26 -57 -33 6 -3 12 -11 12 -18 0 -7 12 -23 28
-34 15 -11 21 -21 14 -21 -17 0 -72 41 -67 50 3 4 -2 13 -10 20 -11 9 -27 9
-76 -4 -34 -8 -63 -17 -65 -19 -2 -2 12 -21 31 -42 20 -21 33 -40 31 -43 -8
-7 -65 42 -65 56 -1 7 -7 15 -15 18 -14 5 -123 -19 -134 -30 -3 -3 11 -22 31
-41 21 -20 37 -38 37 -40 0 -15 -25 0 -61 36 l-41 41 -70 -17 -70 -18 42 -39
c23 -22 39 -42 36 -45 -7 -7 -76 45 -76 56 0 19 -34 20 -96 5 -65 -17 -81 -31
-44 -41 11 -3 20 -10 20 -15 0 -5 10 -18 23 -29 14 -12 17 -18 8 -19 -8 0 -34
18 -58 41 -24 22 -50 39 -56 36 -7 -3 -38 -10 -70 -17 -59 -12 -67 -19 -42
-40 8 -7 15 -10 15 -7 0 3 13 -7 28 -21 16 -15 43 -38 61 -52 19 -14 48 -37
66 -52 18 -16 35 -28 38 -28 3 0 19 -13 36 -29 18 -17 37 -28 44 -25 7 2 17
-6 22 -18 6 -12 22 -29 36 -37 24 -13 33 -13 88 4 33 10 61 22 61 26 0 5 -13
18 -30 31 -30 22 -39 38 -21 38 6 0 25 -13 43 -30 18 -16 41 -30 51 -30 27 0
127 30 127 38 0 4 -16 18 -36 31 -30 21 -33 26 -19 33 14 8 12 12 -10 29 -25
21 -33 39 -16 39 16 0 70 -59 60 -66 -15 -9 -10 -18 24 -41 31 -21 35 -22 82
-8 85 26 84 24 45 56 -28 24 -32 31 -21 39 12 7 8 12 -17 27 -18 10 -32 21
-32 26 0 16 31 5 62 -23 18 -17 27 -30 20 -30 -23 0 -12 -18 24 -40 l35 -22
80 22 c43 13 79 26 79 31 0 4 -17 18 -37 30 -70 42 -105 72 -93 79 7 4 22 -3
35 -16 13 -13 33 -24 45 -24 11 0 20 -6 20 -13 0 -15 51 -47 74 -47 13 0 493
134 669 186 24 7 8 27 -36 45 -18 7 -39 19 -47 26 -8 7 -24 19 -35 27 -13 10
-15 15 -7 16 8 0 25 -9 39 -20 14 -11 34 -20 44 -20 11 0 19 -4 19 -9 0 -5 16
-19 36 -30 36 -21 36 -21 101 -3 35 10 63 22 61 27 -2 6 -12 9 -23 8 -12 -1
-14 1 -6 4 11 4 8 10 -10 24 -36 28 -3 23 39 -6 46 -31 60 -31 96 0 l28 24
-26 12 c-35 16 -33 26 9 33 41 8 45 22 10 38 -14 6 -25 15 -25 20 0 12 6 10
45 -16 20 -14 43 -22 54 -19 25 6 44 -29 36 -65 -4 -18 -18 -35 -40 -46 -19
-11 -35 -23 -35 -28 0 -5 -5 -6 -10 -3 -5 3 -10 1 -10 -5 0 -6 -5 -8 -10 -5
-7 4 -9 -5 -5 -24 3 -19 1 -31 -6 -31 -6 0 -17 -6 -24 -12 -33 -30 -45 -38
-54 -38 -6 0 -14 -6 -18 -12 -4 -7 -25 -22 -45 -32 -21 -10 -35 -23 -31 -29 3
-5 0 -7 -8 -5 -8 3 -27 -4 -42 -15 -22 -15 -27 -25 -23 -43 4 -14 2 -24 -4
-24 -5 0 -10 5 -10 11 0 6 -7 3 -16 -5 -8 -9 -22 -16 -29 -16 -9 0 -12 -6 -8
-17 4 -11 3 -14 -5 -9 -7 4 -12 1 -12 -8 0 -9 -4 -17 -10 -17 -5 -1 -14 -3
-20 -4 -5 -1 -15 -3 -21 -4 -5 0 -7 -6 -4 -12 4 -6 -3 -13 -15 -16 -13 -3 -19
-11 -16 -20 3 -8 1 -11 -4 -8 -15 10 -51 -30 -44 -48 4 -12 -2 -20 -20 -28
-14 -7 -26 -17 -26 -24 0 -6 -10 -22 -21 -34 -18 -19 -19 -25 -8 -32 12 -7 11
-9 -1 -9 -16 0 -70 -75 -70 -96 0 -7 5 -16 10 -19 17 -10 11 -24 -9 -22 -11 0
-17 5 -15 9 3 5 10 5 16 2 7 -5 8 -2 3 5 -6 10 -11 10 -23 -2 -13 -14 -13 -20
2 -56 18 -47 20 -54 7 -47 -5 4 -20 2 -32 -3 -24 -8 -24 -8 -2 -15 18 -6 31
-27 37 -61 3 -18 -27 -56 -40 -51 -8 3 -13 2 -12 -2 4 -14 -14 -52 -24 -52 -6
0 -6 7 2 18 7 9 -7 -5 -32 -32 -29 -31 -45 -57 -45 -73 -1 -14 -8 -30 -18 -35
-9 -6 -24 -18 -33 -29 -16 -19 -38 -16 -26 3 4 7 2 8 -5 4 -6 -4 -9 -11 -6
-16 3 -5 1 -11 -5 -15 -6 -4 -7 -11 -4 -17 5 -7 2 -8 -5 -4 -7 5 -10 14 -7 21
3 9 -2 11 -17 7 -12 -3 -16 -7 -9 -10 6 -2 12 -8 12 -13 0 -6 -5 -7 -12 -3 -8
5 -9 2 -5 -10 4 -9 3 -15 -2 -11 -14 8 -41 -5 -41 -21 0 -8 -5 -14 -11 -14 -6
0 -28 -13 -49 -30 -21 -16 -45 -30 -53 -30 -9 0 -18 -4 -22 -9 -3 -5 -31 -22
-63 -38 -31 -15 -60 -33 -64 -39 -4 -6 -71 -38 -148 -70 -77 -32 -140 -62
-140 -66 0 -12 18 -10 43 4 12 7 36 18 52 24 57 22 260 95 358 129 53 19 102
37 107 40 6 3 10 1 10 -5 0 -7 7 -5 16 4 8 9 27 17 42 17 67 4 100 9 139 23
22 8 43 12 46 9 3 -2 15 0 26 7 13 7 21 7 21 1 0 -7 9 -7 26 -1 14 6 40 10 59
10 19 0 46 5 62 11 38 15 93 20 93 9 0 -5 7 -7 15 -4 8 4 15 2 15 -4 0 -6 26
-10 64 -9 39 0 62 5 59 10 -3 6 -1 7 5 3 6 -3 23 -1 39 5 15 6 49 12 74 14 26
1 52 6 58 10 7 4 21 -1 31 -10 17 -15 19 -15 29 2 6 10 11 13 11 6 0 -7 7 -10
15 -7 8 4 12 10 9 15 -3 5 1 6 9 3 8 -3 31 1 50 10 26 11 46 12 77 5 23 -5 45
-7 51 -4 5 4 9 1 9 -6 0 -6 8 -9 19 -6 11 3 22 -1 25 -9 5 -14 -56 -55 -102
-69 -12 -3 -20 -10 -17 -15 4 -7 -31 -22 -58 -24 -12 -1 -37 -37 -37 -53 0
-10 5 -11 19 -3 11 5 22 10 25 10 13 0 5 -29 -15 -51 -11 -13 -18 -18 -14 -12
4 9 1 11 -9 7 -9 -3 -14 -10 -11 -14 7 -11 -15 -27 -47 -35 -16 -4 -25 -11
-23 -16 8 -12 -62 -45 -340 -159 -137 -56 -252 -104 -254 -106 -2 -2 478 -4
1067 -4 l1070 0 7 68 c9 90 53 307 71 351 8 20 12 46 9 58 -8 32 10 28 35 -7
21 -30 50 -40 50 -19 0 7 -20 32 -45 57 -25 24 -45 53 -45 63 0 16 3 16 28 4
15 -7 42 -16 60 -20 l33 -7 -7 38 c-10 57 -39 98 -71 104 -24 4 -31 14 -46 60
-10 30 -16 66 -13 80 2 13 -5 46 -15 72 -10 27 -19 64 -19 83 0 19 -4 35 -8
35 -5 0 -36 -11 -71 -25 -34 -14 -85 -32 -114 -40 -29 -8 -63 -17 -76 -21 -18
-5 -22 -4 -16 5 9 16 -50 9 -112 -13 -23 -8 -50 -12 -61 -9 -11 2 -23 0 -26
-6 -4 -6 -13 -11 -19 -11 -7 0 -4 7 6 14 14 11 15 16 6 22 -7 4 -15 2 -17 -4
-2 -7 -8 -12 -13 -12 -6 0 -7 5 -4 10 3 6 1 10 -4 10 -6 0 -11 -3 -11 -7 0 -5
-16 -9 -35 -10 -23 -1 -35 3 -35 12 0 18 -49 29 -66 14 -11 -9 -21 -9 -39 -1
-14 6 -32 9 -42 5 -10 -4 -14 -2 -10 4 4 6 4 18 1 26 -4 12 -12 13 -37 6 -18
-5 -33 -9 -33 -9 -1 0 -1 8 0 17 1 12 -6 18 -19 18 -31 1 -66 15 -60 26 4 5 0
9 -9 9 -8 0 -22 3 -32 7 -12 5 -15 3 -9 -6 10 -17 -33 -4 -52 14 -7 7 -36 16
-65 20 -97 14 -101 6 101 198 102 97 206 193 231 211 l45 34 96 -9 c105 -10
158 2 178 39 5 10 60 65 121 122 l112 103 42 -20 c42 -21 43 -22 63 -109 12
-49 24 -109 28 -134 3 -25 15 -90 25 -145 25 -129 28 -163 29 -262 1 -77 3
-83 21 -83 11 0 22 6 24 13 13 49 23 71 32 74 7 2 24 -28 40 -68 21 -52 35
-74 54 -82 88 -38 108 -75 80 -148 -24 -59 -25 -106 -5 -133 16 -22 20 -56 6
-56 -4 0 -25 11 -46 25 -20 15 -40 23 -43 20 -3 -3 4 -25 16 -49 12 -24 22
-50 22 -58 0 -18 59 -74 88 -83 12 -3 34 -16 50 -29 93 -76 182 -86 182 -21 0
57 61 54 112 -5 40 -46 116 -177 129 -222 5 -18 9 -72 9 -120 l0 -88 1755 0
1755 0 0 1739 0 1740 -57 34 c-126 76 -154 87 -763 297 -124 43 -265 92 -315
109 -49 17 -108 45 -130 61 -22 17 -60 41 -85 54 -25 14 -78 57 -119 96 l-73
72 -46 -7 c-40 -6 -48 -4 -63 17 -16 21 -27 23 -113 26 -86 4 -96 2 -96 -13 0
-26 62 -80 140 -121 38 -20 88 -56 110 -80 40 -43 40 -46 34 -96 -5 -38 -18
-67 -47 -108 -70 -96 -155 -150 -348 -219 -31 -10 -71 -28 -90 -38 -44 -25
-108 -41 -186 -47 -48 -4 -62 -2 -67 10 -3 8 -11 12 -16 9 -19 -12 -94 -13
-112 -1 -10 6 -18 17 -18 25 0 11 3 11 15 1 13 -11 14 -10 9 4 -3 9 -11 16
-16 16 -13 0 -58 51 -58 66 0 16 -49 59 -68 59 -14 0 -16 8 -13 50 4 56 16 78
46 83 11 2 30 10 42 18 12 8 33 14 45 14 13 0 38 9 56 20 18 11 40 20 48 20
10 0 14 6 11 14 -3 8 -1 17 6 19 7 2 -16 3 -50 2 -33 -2 -66 -5 -71 -9 -6 -3
-13 3 -17 14 -4 11 -11 18 -16 15 -5 -4 -9 -3 -10 2 -2 20 -10 57 -13 61 -2 2
-12 5 -22 6 -10 2 -22 15 -26 32 -9 33 -1 101 13 110 5 3 9 19 9 36 0 17 8 40
18 51 15 18 15 20 0 14 -13 -5 -15 0 -11 26 13 84 19 102 41 112 12 5 25 18
28 27 3 10 11 19 17 19 7 1 21 3 32 5 11 2 34 5 52 6 17 2 35 7 39 11 15 15
34 6 34 -17 0 -20 4 -22 26 -18 19 3 26 0 31 -16 4 -18 8 -19 34 -8 75 32 110
130 107 300 -1 104 -4 121 -22 137 -11 11 -24 19 -30 19 -5 0 -7 3 -3 6 3 3
-10 24 -30 45 -20 22 -38 37 -41 35 -2 -3 -21 4 -40 15 -20 10 -45 19 -54 19
-10 0 -27 6 -38 12 -30 19 -41 0 -27 -49 10 -38 8 -48 -11 -88 -12 -25 -17
-45 -12 -45 13 0 130 -88 150 -112 9 -11 27 -25 40 -31 31 -16 37 -37 11 -44
-12 -3 -21 -12 -21 -19 0 -27 -97 -72 -161 -75 -36 -2 -128 19 -171 39 -41 19
-48 35 -20 51 11 7 12 11 4 11 -10 0 -12 8 -7 30 5 22 3 30 -7 30 -8 0 -9 3
-3 8 11 7 15 62 5 62 -3 0 -11 -5 -18 -12 -7 -7 -12 -9 -12 -5 0 5 -20 -6 -44
-23 -50 -34 -66 -37 -66 -13 0 9 -7 79 -16 157 -16 133 -16 146 1 232 11 56
15 105 11 130 -13 74 -16 149 -7 169 6 11 11 29 13 40 2 12 15 23 36 29 17 5
32 13 32 17 0 5 18 12 40 15 22 4 40 10 40 14 0 18 29 4 33 -17 2 -12 0 -23
-4 -23 -12 0 -11 -131 0 -149 6 -8 19 -12 35 -9 21 4 32 -1 51 -24 14 -16 25
-36 25 -43 0 -16 56 -53 100 -65 42 -12 61 -3 54 24 -4 19 1 25 38 40 l43 17
-23 18 c-37 27 -24 58 43 105 19 13 18 14 -7 9 -25 -5 -26 -3 -19 28 4 20 14
35 23 37 20 4 70 -27 63 -38 -3 -4 13 -3 36 2 47 12 43 18 -31 42 -61 21 -85
36 -55 36 27 0 14 8 -25 15 -19 3 -37 8 -40 11 -9 10 49 49 102 68 29 10 61
28 70 39 17 19 17 21 -10 46 -15 14 -29 26 -32 26 -3 0 -9 3 -15 7 -12 7 -193
3 -215 -5 -57 -21 -170 -12 -170 14 0 6 -6 9 -13 6 -8 -3 -20 -1 -28 5 -11 8
-10 9 4 4 18 -6 24 9 7 19 -6 3 -7 17 -4 31 5 20 3 23 -11 18 -15 -6 -16 -4
-5 16 10 18 9 24 -1 31 -7 4 -17 5 -22 2 -5 -3 -6 4 -2 16 4 12 2 22 -4 22
-43 5 -52 17 -47 57 3 20 5 40 5 44 1 9 71 80 71 72 0 -4 18 13 40 36 39 42
50 57 30 45 -5 -3 -10 -1 -10 4 0 6 7 11 15 11 8 0 12 6 9 13 -2 7 4 22 16 32
11 10 20 24 20 32 0 7 6 14 13 14 6 1 23 3 37 6 54 9 76 9 92 1 10 -5 19 -4
23 2 3 5 13 10 21 10 9 0 24 10 33 21 15 18 21 20 39 10 12 -6 22 -8 22 -4 0
10 61 10 78 0 6 -5 12 -5 12 -1 0 4 9 -1 20 -11 19 -18 20 -17 20 6 1 22 2 22
14 7 10 -14 15 -15 25 -5 10 9 24 -1 66 -47 31 -33 51 -64 48 -72 -3 -8 0 -14
7 -14 6 0 9 -4 5 -10 -3 -5 -2 -17 4 -27 15 -29 34 -77 35 -88 1 -5 10 -28 19
-50 10 -22 16 -48 13 -59 -3 -10 9 -40 29 -70 38 -59 52 -96 35 -96 -9 0 -11
-39 -8 -142 4 -166 13 -197 38 -122 10 28 23 49 31 49 18 0 54 141 69 272 6
54 12 163 13 243 1 80 5 147 9 150 3 3 0 22 -7 42 -7 21 -10 40 -7 43 9 9 11
59 3 70 -4 5 -9 30 -10 54 -1 25 -5 49 -8 55 -4 6 -7 22 -7 36 -1 14 -5 31 -9
38 -5 7 -3 12 5 12 7 0 0 11 -15 25 -29 28 -30 30 -27 89 1 29 -1 36 -12 30
-10 -6 -11 -5 -1 7 9 11 8 18 -3 33 -7 11 -11 29 -8 43 5 17 2 23 -11 23 -12
0 -16 6 -13 18 7 26 -12 46 -46 50 -16 2 -39 8 -50 12 -17 7 -13 9 19 11 22 1
32 3 22 6 -9 2 -15 9 -12 14 4 5 1 9 -5 9 -7 0 -9 8 -5 22 6 17 4 20 -10 14
-13 -5 -16 -2 -11 9 4 11 0 15 -12 13 -11 -2 -17 4 -17 16 0 11 -11 23 -25 28
-23 9 -24 10 -6 20 25 14 1 29 -34 21 -20 -5 -23 -3 -12 8 16 18 15 29 -3 29
-9 0 -25 9 -37 20 -12 11 -28 20 -35 20 -7 0 -13 7 -13 15 0 8 -11 17 -25 21
-14 3 -22 11 -18 17 4 6 -3 8 -19 4 -20 -5 -28 -1 -38 18 -10 19 -19 24 -34
19 -19 -6 -20 -5 -6 11 14 17 13 18 -7 13 -13 -4 -23 -2 -23 4 0 6 -7 7 -16 4
-8 -3 -13 -2 -10 2 3 4 -4 13 -14 20 -12 7 -21 8 -25 2 -10 -16 -48 -12 -42 4
5 13 -17 28 -53 39 -8 2 -26 0 -39 -5 -17 -6 -27 -4 -35 6 -13 18 -37 16 -60
-3 -14 -12 -16 -11 -16 8 0 14 -4 20 -11 15 -6 -3 -15 -1 -19 6 -5 8 -10 9
-14 1z m-1496 -2876 c0 -8 7 -15 15 -15 9 0 12 6 9 15 -4 9 0 15 10 15 10 0
13 -6 10 -15 -4 -8 -1 -15 5 -15 6 0 11 7 11 15 0 20 10 19 26 -2 13 -17 13
-17 14 0 0 9 5 17 11 17 5 0 8 -4 4 -9 -3 -5 -1 -12 5 -16 6 -3 13 1 16 9 7
18 25 22 22 5 -2 -6 3 -14 10 -16 6 -3 12 2 12 11 0 9 7 16 15 16 9 0 12 -6 9
-15 -4 -10 0 -15 11 -15 11 0 15 5 11 15 -3 8 -1 15 4 15 6 0 10 -7 10 -16 0
-9 6 -14 13 -11 6 2 11 10 9 17 -2 10 1 10 14 -1 13 -11 18 -11 21 -1 7 17 70
15 77 -3 3 -8 10 -15 16 -15 5 0 10 7 10 15 0 20 16 19 24 -1 5 -12 20 -15 82
-11 68 3 76 1 86 -17 6 -12 25 -39 42 -60 19 -25 24 -36 12 -29 -9 5 -23 21
-30 34 -7 13 -17 23 -22 22 -5 0 -18 -3 -29 -5 -13 -2 -20 3 -20 12 0 10 8 14
23 13 13 -2 21 1 17 7 -7 12 -42 13 -49 2 -3 -5 -20 -7 -38 -5 -18 1 -27 0
-20 -3 21 -10 13 -24 -13 -24 -14 0 -25 6 -25 13 0 9 -15 13 -42 14 -24 1 -35
-1 -25 -4 9 -2 17 -8 17 -13 0 -5 -8 -11 -17 -13 -10 -3 10 -5 45 -6 59 -1 62
-2 62 -26 l0 -25 -122 0 c-68 0 -383 -3 -700 -7 -542 -6 -578 -5 -584 11 -4
10 -3 21 2 26 6 6 174 11 379 12 204 1 463 4 577 8 181 4 206 7 198 20 -7 10
-10 11 -10 3 0 -8 -14 -13 -34 -13 -19 0 -37 6 -39 13 -4 9 -8 8 -16 -3 -10
-13 -13 -13 -21 1 -9 15 -50 17 -407 18 -478 2 -539 4 -549 14 -4 4 10 7 32 6
120 -5 397 3 379 11 -19 8 -19 9 3 9 12 1 22 -3 22 -9 0 -5 25 -10 55 -10 42
0 55 3 55 15 0 13 23 15 150 15 127 0 150 -2 150 -15z m-1182 -1535 c-24 -28
-61 -59 -83 -69 -52 -24 -82 -57 -103 -116 -28 -78 -38 -67 -46 51 -4 58 -10
112 -13 120 -6 15 8 19 150 44 148 27 145 28 95 -30z"/>
<path d="M1185 7150 c-16 -4 -24 -8 -17 -9 23 -2 12 -17 -30 -38 -38 -20 -43
-20 -54 -5 -10 14 -14 14 -28 3 -9 -7 -16 -19 -16 -26 0 -13 -38 -51 -44 -44
-3 2 -13 26 -23 53 -10 27 -24 51 -32 54 -17 6 -12 -24 13 -81 l16 -37 -85
-42 c-47 -23 -85 -48 -85 -55 0 -17 -5 -19 86 26 43 21 82 37 85 35 4 -2 9
-35 13 -74 5 -49 11 -70 21 -70 20 0 23 29 8 79 -16 55 -17 91 -1 91 6 0 20 7
30 17 10 9 21 13 24 10 11 -10 -17 -169 -38 -219 -29 -68 -23 -83 33 -82 l45
2 -18 -55 c-11 -30 -26 -66 -35 -79 -19 -29 -69 -44 -123 -37 -24 3 -40 2 -40
-5 0 -14 25 -22 71 -22 44 0 72 11 106 43 l22 20 7 -27 c8 -32 33 -34 61 -3
35 38 82 117 99 170 16 47 16 51 -1 63 -13 10 -26 10 -63 -2 -26 -7 -48 -14
-49 -14 -1 0 -3 21 -5 47 -2 25 -8 48 -14 50 -14 5 -47 -62 -41 -85 3 -12 6
-9 11 11 10 34 26 36 26 3 0 -32 -25 -56 -57 -56 -21 0 -24 4 -19 23 27 104
46 189 51 227 6 44 7 46 82 86 42 22 79 46 81 52 4 13 -26 14 -73 2z m55 -372
c-1 -39 -94 -198 -115 -198 -22 0 -26 48 -9 108 19 66 24 73 67 89 43 15 57
16 57 1z"/>
<path d="M1107 6083 c-4 -3 -4 -23 -1 -44 7 -43 -13 -139 -30 -144 -6 -2 -32
-10 -58 -18 -28 -8 -51 -10 -56 -5 -5 5 -37 3 -78 -6 -38 -8 -125 -22 -194
-31 -69 -9 -172 -23 -230 -31 -58 -9 -184 -26 -280 -38 l-175 -22 -3 -197 c-2
-163 0 -197 11 -197 8 0 133 18 278 40 145 23 395 61 555 85 160 25 319 46
353 48 40 2 65 8 73 18 7 9 40 37 74 62 43 33 70 47 92 47 18 0 32 5 32 10 0
6 5 10 10 10 6 0 10 -8 10 -17 0 -13 3 -14 12 -5 7 7 41 12 85 12 l72 0 16
-34 c13 -27 14 -39 5 -55 -6 -12 -15 -21 -20 -21 -18 0 -131 -154 -169 -232
-41 -83 -71 -180 -71 -228 0 -15 9 -31 21 -38 25 -16 160 -32 249 -30 51 1 41
3 -45 9 -137 9 -193 18 -200 29 -10 16 13 21 167 36 84 8 182 20 218 25 85 14
535 -2 552 -19 58 -58 16 97 -62 230 -27 45 -79 108 -137 167 l-95 94 -14 176
c-7 97 -14 183 -14 192 0 9 -8 27 -18 39 -23 29 -140 43 -254 30 -93 -11 -118
-27 -118 -75 0 -24 -5 -34 -20 -38 -13 -3 -20 -14 -20 -30 0 -32 -8 -37 -73
-44 -59 -6 -192 24 -256 57 -43 22 -109 89 -145 148 -26 41 -36 49 -49 35z
m13 -390 c10 -43 16 -81 12 -84 -4 -4 -28 -10 -53 -13 l-47 -7 -10 73 c-6 40
-12 82 -14 93 -2 17 4 21 37 25 22 3 44 3 49 -1 4 -4 16 -42 26 -86z"/>
<path d="M3066 4109 c-22 -17 -26 -28 -26 -67 0 -26 7 -56 15 -66 11 -14 15
-16 15 -6 0 10 9 5 24 -11 21 -22 30 -26 58 -20 18 4 32 9 32 11 -1 3 -5 44
-9 93 l-7 87 -38 0 c-23 0 -48 -8 -64 -21z"/>
<path d="M1086 3249 c-346 -48 -631 -90 -634 -93 -2 -3 45 -220 105 -483 109
-472 111 -478 134 -475 30 4 1302 282 1305 285 1 1 -17 74 -40 162 -24 88 -74
280 -112 427 l-69 268 -30 -1 c-16 -1 -313 -41 -659 -90z"/>
<path d="M30 1502 c0 -11 -6 -25 -14 -31 -10 -9 -14 -37 -15 -103 l0 -90 28 5
c16 3 40 9 55 13 16 4 26 2 26 -5 0 -6 -8 -11 -17 -11 -38 0 -93 -21 -93 -36
0 -12 8 -13 38 -8 20 4 47 11 60 15 39 15 49 11 112 -41 34 -29 65 -48 72 -44
7 4 8 3 4 -4 -8 -13 153 -154 166 -146 5 3 7 0 6 -8 -2 -7 6 -13 17 -13 11 0
20 -6 20 -13 0 -8 24 -35 54 -62 l54 -48 -90 -60 c-88 -59 -205 -123 -251
-137 -13 -4 -22 -9 -19 -11 2 -2 18 1 36 7 24 9 35 9 44 0 11 -11 -2 -16 -26
-12 -5 1 -6 -3 -2 -9 4 -6 -5 -10 -20 -10 -14 0 -38 -6 -53 -14 -32 -16 -78
-15 -75 2 2 7 1 12 -1 12 -9 0 -76 -42 -76 -47 0 -4 163 4 205 10 6 1 13 10
17 20 4 10 12 15 18 12 6 -3 20 -3 31 0 17 6 19 9 8 17 -11 7 -9 9 6 5 11 -3
28 -8 38 -12 12 -5 16 -3 12 7 -8 20 31 39 96 47 3 1 11 17 19 36 8 19 18 35
22 35 5 0 7 4 4 9 -5 7 15 17 40 20 7 1 82 89 93 110 8 14 -20 42 -178 174
-166 139 -259 224 -224 203 6 -3 14 -2 18 3 3 6 -23 33 -57 61 -35 29 -87 73
-116 98 -29 25 -61 52 -72 59 -18 13 -20 12 -20 -5z"/>
</g>
</svg>
